# xmcd CD database file
#
# Track frame offsets:
#	150
#	12710
#	29615
#	48155
#	63630
#	76282
#	94817
#	111252
#	128527
#	141247
#
# Disc length: 2104 seconds
#
# Revision: 2
# Processed by: cddbd v1.5.1PL2 Copyright (c) Steve Scherf et al.
# Submitted via: CDex 1.51
#
DISCID=8808360a
DTITLE=Bobbie Cryner - Girl Of Your Dreams
DYEAR=1996
DGENRE=Country
TTITLE0=on Of A Preacher Man - Bobbie Cryner
TTITLE1=I Didn't Know My Own Strength - Bobbie Cryner
TTITLE2=The Girl Of Your Dreams - Bobbie Cryner
TTITLE3=Vision Of Loneliness - Bobbie Cryner
TTITLE4=A Lesson In Leaving - Bobbie Cryner
TTITLE5=You Think He'd Know Me Better - Bobbie Cryner
TTITLE6=I Just Can't Stand To Be Unhappy - Bobbie Cryner
TTITLE7=Nobody Leaves - Bobbie Cryner
TTITLE8=Oh To Be The One - Bobbie Cryner
TTITLE9=Just Say So - Bobbie Cryner
EXTD=YEAR: 1996
EXTT0=
EXTT1=
EXTT2=
EXTT3=
EXTT4=
EXTT5=
EXTT6=
EXTT7=
EXTT8=
EXTT9=
PLAYORDER=
